<svg width="800" height="400" viewBox="0 0 800 400" xmlns="http://www.w3.org/2000/svg"><mask id="satori_om-id"><rect x="0" y="0" width="800" height="400" fill="#fff"/></mask><rect x="0" y="0" width="800" height="400" fill="#fff"/><mask id="satori_om-id-0"><rect x="65" y="142" width="670" height="77" fill="#fff"/></mask><path fill="firebrick" d="M102.8 201.4L70.8 187.3L70.8 179.3L102.8 165.2L102.8 174.4L80.8 183.2L81.1 182.7L81.1 183.9L80.8 183.4L102.8 192.2L102.8 201.4ZM127.5 184.5L121.1 191.9L121.2 180.2L122.6 180.2L133.8 167.0L144.9 167.0L129.8 184.5L127.5 184.5ZM122.0 201.9L112.4 201.9L112.4 155.4L122.0 155.4L122.0 201.9ZM145.5 201.9L134.2 201.9L123.9 186.7L130.4 179.9L145.5 201.9ZM149.0 178.9L170.2 178.9L170.2 186.6L149.0 186.6L149.0 178.9ZM188.4 202.6L188.4 202.6Q185.0 202.6 182.4 201.4Q179.8 200.2 178.3 197.9Q176.8 195.6 176.8 192.2L176.8 192.2Q176.8 189.2 177.9 187.3Q178.9 185.3 180.8 184.1Q182.6 182.9 185.0 182.3Q187.3 181.7 189.9 181.4L189.9 181.4Q193.0 181.1 194.8 180.8Q196.7 180.5 197.5 179.9Q198.4 179.4 198.4 178.3L198.4 178.3L198.4 178.1Q198.4 176.0 197.0 174.8Q195.7 173.6 193.2 173.6L193.2 173.6Q190.6 173.6 189.0 174.8Q187.5 175.9 187.0 177.6L187.0 177.6L178.0 176.9Q178.7 173.7 180.7 171.4Q182.7 169.1 185.9 167.8Q189.0 166.5 193.2 166.5L193.2 166.5Q196.1 166.5 198.8 167.2Q201.5 167.9 203.6 169.3Q205.6 170.8 206.8 173.0Q208.0 175.2 208.0 178.4L208.0 178.4L208.0 201.9L198.9 201.9L198.9 197.1L198.6 197.1Q197.8 198.7 196.3 199.9Q194.9 201.2 193.0 201.9Q191.0 202.6 188.4 202.6ZM191.2 195.9L191.2 195.9Q193.3 195.9 194.9 195.0Q196.6 194.2 197.5 192.7Q198.4 191.3 198.4 189.4L198.4 189.4L198.4 185.7Q198.0 186.0 197.2 186.3Q196.4 186.5 195.4 186.7Q194.5 186.9 193.5 187.0Q192.5 187.2 191.7 187.3L191.7 187.3Q190 187.5 188.7 188.1Q187.5 188.6 186.8 189.6Q186.0 190.5 186.0 191.8L186.0 191.8Q186.0 193.8 187.5 194.8Q188.9 195.9 191.2 195.9ZM225.2 181.7L225.2 181.7L225.2 201.9L215.6 201.9L215.6 167.0L224.8 167.0L224.8 173.2L225.2 173.2Q226.4 170.1 229.1 168.3Q231.8 166.5 235.7 166.5L235.7 166.5Q239.3 166.5 242.0 168.1Q244.8 169.7 246.3 172.7Q247.8 175.6 247.8 179.7L247.8 179.7L247.8 201.9L238.1 201.9L238.1 181.4Q238.1 178.2 236.4 176.4Q234.8 174.6 231.9 174.6L231.9 174.6Q229.9 174.6 228.4 175.4Q226.9 176.3 226.1 177.9Q225.3 179.5 225.2 181.7ZM265.0 201.9L255.4 201.9L255.4 167.0L265.0 167.0L265.0 201.9ZM260.2 162.5L260.2 162.5Q258.1 162.5 256.5 161.1Q255 159.6 255 157.6L255 157.6Q255 155.6 256.5 154.1Q258.1 152.7 260.2 152.7L260.2 152.7Q262.4 152.7 263.9 154.1Q265.5 155.6 265.5 157.6L265.5 157.6Q265.5 159.6 263.9 161.1Q262.4 162.5 260.2 162.5ZM282.5 201.9L272.8 201.9L272.8 167.0L282 167.0L282 173.2L282.4 173.2Q283.5 170.1 286.0 168.3Q288.6 166.5 292.1 166.5L292.1 166.5Q295.7 166.5 298.3 168.3Q300.8 170.1 301.6 173.2L301.6 173.2L302.0 173.2Q303.0 170.2 305.9 168.3Q308.7 166.5 312.5 166.5L312.5 166.5Q317.4 166.5 320.4 169.6Q323.5 172.7 323.5 178.4L323.5 178.4L323.5 201.9L313.8 201.9L313.8 180.3Q313.8 177.4 312.3 176.0Q310.8 174.5 308.4 174.5L308.4 174.5Q305.8 174.5 304.3 176.2Q302.8 177.9 302.8 180.6L302.8 180.6L302.8 201.9L293.5 201.9L293.5 180.1Q293.5 177.6 292.0 176.0Q290.5 174.5 288.1 174.5L288.1 174.5Q286.5 174.5 285.2 175.3Q284.0 176.1 283.2 177.6Q282.5 179.0 282.5 180.9L282.5 180.9L282.5 201.9ZM341.1 202.6L341.1 202.6Q337.8 202.6 335.1 201.4Q332.5 200.2 331.0 197.9Q329.5 195.6 329.5 192.2L329.5 192.2Q329.5 189.2 330.6 187.3Q331.6 185.3 333.5 184.1Q335.3 182.9 337.7 182.3Q340.0 181.7 342.6 181.4L342.6 181.4Q345.7 181.1 347.5 180.8Q349.4 180.5 350.2 179.9Q351.1 179.4 351.1 178.3L351.1 178.3L351.1 178.1Q351.1 176.0 349.7 174.8Q348.4 173.6 345.9 173.6L345.9 173.6Q343.3 173.6 341.7 174.8Q340.2 175.9 339.7 177.6L339.7 177.6L330.7 176.9Q331.4 173.7 333.4 171.4Q335.4 169.1 338.6 167.8Q341.8 166.5 345.9 166.5L345.9 166.5Q348.8 166.5 351.5 167.2Q354.2 167.9 356.3 169.3Q358.3 170.8 359.5 173.0Q360.8 175.2 360.8 178.4L360.8 178.4L360.8 201.9L351.6 201.9L351.6 197.1L351.3 197.1Q350.5 198.7 349.0 199.9Q347.6 201.2 345.7 201.9Q343.7 202.6 341.1 202.6ZM343.9 195.9L343.9 195.9Q346.0 195.9 347.6 195.0Q349.3 194.2 350.2 192.7Q351.1 191.3 351.1 189.4L351.1 189.4L351.1 185.7Q350.7 186.0 349.9 186.3Q349.1 186.5 348.1 186.7Q347.2 186.9 346.2 187.0Q345.2 187.2 344.4 187.3L344.4 187.3Q342.7 187.5 341.4 188.1Q340.2 188.6 339.5 189.6Q338.8 190.5 338.8 191.8L338.8 191.8Q338.8 193.8 340.2 194.8Q341.6 195.9 343.9 195.9ZM365.8 167.0L386.8 167.0L386.8 174.3L365.8 174.3L365.8 167.0ZM370.6 192.4L370.6 158.6L380.3 158.6L380.3 191.2Q380.3 192.5 380.7 193.3Q381.1 194.0 381.8 194.3Q382.6 194.6 383.5 194.6L383.5 194.6Q384.2 194.6 384.9 194.5Q385.6 194.3 386.0 194.3L386.0 194.3L387.5 201.5Q386.8 201.7 385.4 202.0Q384.1 202.3 382.2 202.4L382.2 202.4Q378.7 202.5 376.1 201.4Q373.5 200.4 372.0 198.1Q370.6 195.9 370.6 192.4L370.6 192.4ZM408.7 202.6L408.7 202.6Q403.3 202.6 399.4 200.4Q395.5 198.2 393.5 194.2Q391.4 190.1 391.4 184.6L391.4 184.6Q391.4 179.2 393.5 175.2Q395.5 171.1 399.4 168.8Q403.2 166.5 408.3 166.5L408.3 166.5Q411.8 166.5 414.7 167.6Q417.7 168.7 420.0 170.9Q422.2 173.2 423.5 176.5Q424.7 179.8 424.7 184.3L424.7 184.3L424.7 186.9L395.2 186.9L395.2 180.9L415.6 180.9Q415.6 178.8 414.7 177.2Q413.8 175.6 412.2 174.7Q410.6 173.8 408.5 173.8L408.5 173.8Q406.3 173.8 404.6 174.8Q402.9 175.8 401.9 177.5Q401.0 179.2 400.9 181.2L400.9 181.2L400.9 186.9Q400.9 189.5 401.9 191.4Q402.9 193.3 404.6 194.3Q406.4 195.4 408.8 195.4L408.8 195.4Q410.5 195.4 411.8 194.9Q413.1 194.4 414.1 193.5Q415.0 192.6 415.5 191.3L415.5 191.3L424.5 191.9Q423.8 195.1 421.7 197.5Q419.6 199.9 416.3 201.3Q413 202.6 408.7 202.6ZM443.9 202.5L443.9 202.5Q439.9 202.5 436.7 200.4Q433.5 198.4 431.6 194.3Q429.7 190.3 429.7 184.5L429.7 184.5Q429.7 178.5 431.7 174.5Q433.6 170.5 436.8 168.5Q440.0 166.5 443.9 166.5L443.9 166.5Q446.8 166.5 448.8 167.5Q450.7 168.5 451.9 170.0Q453.2 171.4 453.8 172.9L453.8 172.9L454.1 172.9L454.1 155.4L463.8 155.4L463.8 201.9L454.2 201.9L454.2 196.3L453.8 196.3Q453.1 197.8 451.9 199.2Q450.6 200.6 448.7 201.5Q446.7 202.5 443.9 202.5ZM447.0 194.8L447.0 194.8Q449.3 194.8 450.9 193.5Q452.5 192.2 453.4 189.9Q454.3 187.6 454.3 184.4L454.3 184.4Q454.3 181.3 453.4 179.0Q452.6 176.7 450.9 175.5Q449.3 174.2 447.0 174.2L447.0 174.2Q444.6 174.2 442.9 175.5Q441.3 176.8 440.5 179.1Q439.6 181.4 439.6 184.4L439.6 184.4Q439.6 187.5 440.5 189.8Q441.3 192.2 442.9 193.5Q444.6 194.8 447.0 194.8ZM472.2 178.9L493.4 178.9L493.4 186.6L472.2 186.6L472.2 178.9ZM511.4 201.9L501.7 201.9L501.7 167.0L511.4 167.0L511.4 201.9ZM506.5 162.5L506.5 162.5Q504.4 162.5 502.9 161.1Q501.3 159.6 501.3 157.6L501.3 157.6Q501.3 155.6 502.9 154.1Q504.4 152.7 506.5 152.7L506.5 152.7Q508.7 152.7 510.2 154.1Q511.8 155.6 511.8 157.6L511.8 157.6Q511.8 159.6 510.2 161.1Q508.7 162.5 506.5 162.5ZM528.8 201.9L519.1 201.9L519.1 167.0L528.3 167.0L528.3 173.2L528.7 173.2Q529.8 170.1 532.4 168.3Q534.9 166.5 538.5 166.5L538.5 166.5Q542.0 166.5 544.6 168.3Q547.1 170.1 547.9 173.2L547.9 173.2L548.3 173.2Q549.4 170.2 552.2 168.3Q555.0 166.5 558.8 166.5L558.8 166.5Q563.7 166.5 566.8 169.6Q569.8 172.7 569.8 178.4L569.8 178.4L569.8 201.9L560.2 201.9L560.2 180.3Q560.2 177.4 558.6 176.0Q557.1 174.5 554.8 174.5L554.8 174.5Q552.1 174.5 550.6 176.2Q549.2 177.9 549.2 180.6L549.2 180.6L549.2 201.9L539.8 201.9L539.8 180.1Q539.8 177.6 538.3 176.0Q536.8 174.5 534.5 174.5L534.5 174.5Q532.8 174.5 531.6 175.3Q530.3 176.1 529.5 177.6Q528.8 179.0 528.8 180.9L528.8 180.9L528.8 201.9ZM587.4 202.6L587.4 202.6Q584.1 202.6 581.5 201.4Q578.8 200.2 577.3 197.9Q575.8 195.6 575.8 192.2L575.8 192.2Q575.8 189.2 576.9 187.3Q578.0 185.3 579.8 184.1Q581.6 182.9 584.0 182.3Q586.3 181.7 588.9 181.4L588.9 181.4Q592.0 181.1 593.8 180.8Q595.7 180.5 596.5 179.9Q597.4 179.4 597.4 178.3L597.4 178.3L597.4 178.1Q597.4 176.0 596.0 174.8Q594.7 173.6 592.2 173.6L592.2 173.6Q589.6 173.6 588.0 174.8Q586.5 175.9 586 177.6L586 177.6L577.0 176.9Q577.7 173.7 579.7 171.4Q581.7 169.1 584.9 167.8Q588.1 166.5 592.3 166.5L592.3 166.5Q595.2 166.5 597.8 167.2Q600.5 167.9 602.6 169.3Q604.7 170.8 605.9 173.0Q607.1 175.2 607.1 178.4L607.1 178.4L607.1 201.9L597.9 201.9L597.9 197.1L597.6 197.1Q596.8 198.7 595.4 199.9Q594.0 201.2 592.0 201.9Q590 202.6 587.4 202.6ZM590.2 195.9L590.2 195.9Q592.3 195.9 594.0 195.0Q595.6 194.2 596.5 192.7Q597.5 191.3 597.5 189.4L597.5 189.4L597.5 185.7Q597 186.0 596.2 186.3Q595.4 186.5 594.5 186.7Q593.5 186.9 592.5 187.0Q591.5 187.2 590.7 187.3L590.7 187.3Q589.0 187.5 587.8 188.1Q586.5 188.6 585.8 189.6Q585.1 190.5 585.1 191.8L585.1 191.8Q585.1 193.8 586.5 194.8Q588.0 195.9 590.2 195.9ZM630.3 215.7L630.3 215.7Q625.6 215.7 622.3 214.4Q618.9 213.2 616.9 210.9Q615.0 208.7 614.4 206.0L614.4 206.0L623.3 204.8Q623.7 205.8 624.6 206.7Q625.5 207.7 627.0 208.2Q628.4 208.8 630.5 208.8L630.5 208.8Q633.7 208.8 635.8 207.2Q637.8 205.7 637.8 202.1L637.8 202.1L637.8 195.7L637.4 195.7Q636.8 197.2 635.5 198.5Q634.2 199.8 632.2 200.6Q630.2 201.4 627.5 201.4L627.5 201.4Q623.5 201.4 620.3 199.6Q617.1 197.7 615.2 194.0Q613.3 190.2 613.3 184.4L613.3 184.4Q613.3 178.4 615.2 174.5Q617.2 170.5 620.4 168.5Q623.6 166.5 627.4 166.5L627.4 166.5Q630.4 166.5 632.3 167.5Q634.3 168.5 635.5 170.0Q636.8 171.4 637.4 172.9L637.4 172.9L637.8 172.9L637.8 167.0L647.4 167.0L647.4 202.2Q647.4 206.7 645.2 209.7Q643.0 212.7 639.2 214.2Q635.3 215.7 630.3 215.7ZM630.5 194.1L630.5 194.1Q632.9 194.1 634.5 193.0Q636.1 191.8 637.0 189.6Q637.9 187.4 637.9 184.3L637.9 184.3Q637.9 181.3 637 179.0Q636.1 176.7 634.5 175.5Q632.9 174.2 630.5 174.2L630.5 174.2Q628.1 174.2 626.5 175.5Q624.9 176.8 624.0 179.1Q623.2 181.4 623.2 184.3L623.2 184.3Q623.2 187.4 624.0 189.6Q624.9 191.7 626.5 192.9Q628.1 194.1 630.5 194.1ZM671.0 202.6L671.0 202.6Q665.6 202.6 661.8 200.4Q657.9 198.2 655.8 194.2Q653.7 190.1 653.7 184.6L653.7 184.6Q653.7 179.2 655.8 175.2Q657.9 171.1 661.7 168.8Q665.5 166.5 670.6 166.5L670.6 166.5Q674.1 166.5 677.1 167.6Q680.1 168.7 682.3 170.9Q684.5 173.2 685.8 176.5Q687.0 179.8 687.0 184.3L687.0 184.3L687.0 186.9L657.6 186.9L657.6 180.9L677.9 180.9Q677.9 178.8 677.0 177.2Q676.1 175.6 674.5 174.7Q672.9 173.8 670.8 173.8L670.8 173.8Q668.6 173.8 666.9 174.8Q665.2 175.8 664.3 177.5Q663.3 179.2 663.3 181.2L663.3 181.2L663.3 186.9Q663.3 189.5 664.2 191.4Q665.2 193.3 667.0 194.3Q668.8 195.4 671.2 195.4L671.2 195.4Q672.8 195.4 674.1 194.9Q675.5 194.4 676.4 193.5Q677.4 192.6 677.9 191.3L677.9 191.3L686.8 191.9Q686.2 195.1 684.1 197.5Q682.0 199.9 678.6 201.3Q675.3 202.6 671.0 202.6ZM727.3 179.3L727.3 187.3L695.3 201.4L695.3 192.2L717.2 183.4L716.9 183.9L716.9 182.7L717.2 183.2L695.3 174.4L695.3 165.2L727.3 179.3Z "/><mask id="satori_om-id-1"><rect x="6" y="219" width="789" height="39" fill="#fff"/></mask><path fill="black" d="M12.8 249.0L7.9 249.0L7.9 231.5L12.8 231.5L12.8 249.0ZM10.4 229.2L10.4 229.2Q9.3 229.2 8.5 228.5Q7.8 227.8 7.8 226.8L7.8 226.8Q7.8 225.8 8.5 225.1Q9.3 224.3 10.4 224.3L10.4 224.3Q11.4 224.3 12.2 225.1Q13.0 225.8 13.0 226.8L13.0 226.8Q13.0 227.8 12.2 228.5Q11.4 229.2 10.4 229.2ZM31.2 236.5L31.2 236.5L26.7 236.7Q26.6 236.2 26.2 235.7Q25.9 235.3 25.3 235.0Q24.6 234.7 23.8 234.7L23.8 234.7Q22.7 234.7 21.9 235.2Q21.1 235.6 21.1 236.4L21.1 236.4Q21.1 237.1 21.6 237.5Q22.1 237.9 23.4 238.2L23.4 238.2L26.5 238.8Q29.1 239.3 30.3 240.5Q31.6 241.7 31.6 243.5L31.6 243.5Q31.6 245.3 30.6 246.6Q29.5 247.8 27.8 248.6Q26.1 249.3 23.8 249.3L23.8 249.3Q20.3 249.3 18.3 247.8Q16.2 246.4 15.9 243.9L15.9 243.9L20.6 243.6Q20.8 244.7 21.7 245.3Q22.5 245.8 23.8 245.8L23.8 245.8Q25.1 245.8 25.8 245.3Q26.6 244.8 26.6 244.0L26.6 244.0Q26.6 243.4 26.1 242.9Q25.5 242.5 24.4 242.3L24.4 242.3L21.4 241.7Q18.8 241.2 17.6 239.9Q16.3 238.7 16.3 236.7L16.3 236.7Q16.3 235.0 17.2 233.8Q18.2 232.6 19.8 231.9Q21.5 231.3 23.7 231.3L23.7 231.3Q27.0 231.3 28.9 232.7Q30.8 234.1 31.2 236.5Z "/><mask id="satori_om-id-1-1"><rect x="43" y="219" width="52" height="39" fill="#fff"/></mask><rect x="43" y="219" width="52" height="39" fill="firebrick"/><path fill="white" d="M49.8 238.9L49.8 238.9L49.8 249.0L44.9 249.0L44.9 231.5L49.5 231.5L49.5 234.6L49.8 234.6Q50.3 233.1 51.7 232.2Q53.1 231.3 55 231.3L55 231.3Q56.8 231.3 58.2 232.1Q59.5 232.9 60.3 234.3Q61.0 235.8 61.0 237.8L61.0 237.8L61.0 249.0L56.2 249.0L56.2 238.7Q56.2 237.1 55.4 236.2Q54.5 235.3 53.1 235.3L53.1 235.3Q52.1 235.3 51.4 235.7Q50.6 236.1 50.2 236.9Q49.8 237.7 49.8 238.9ZM72.7 249.3L72.7 249.3Q70.1 249.3 68.1 248.2Q66.2 247.0 65.2 245.0Q64.1 243.0 64.1 240.3L64.1 240.3Q64.1 237.6 65.2 235.6Q66.2 233.5 68.1 232.4Q70.1 231.3 72.7 231.3L72.7 231.3Q75.4 231.3 77.3 232.4Q79.2 233.5 80.3 235.6Q81.3 237.6 81.3 240.3L81.3 240.3Q81.3 243.0 80.3 245.0Q79.2 247.0 77.3 248.2Q75.4 249.3 72.7 249.3ZM72.7 245.5L72.7 245.5Q73.9 245.5 74.8 244.9Q75.6 244.2 76.0 243.0Q76.4 241.8 76.4 240.3L76.4 240.3Q76.4 238.7 76.0 237.5Q75.6 236.3 74.8 235.7Q73.9 235.0 72.7 235.0L72.7 235.0Q71.5 235.0 70.7 235.7Q69.9 236.3 69.5 237.5Q69.0 238.7 69.0 240.3L69.0 240.3Q69.0 241.8 69.5 243.0Q69.9 244.2 70.7 244.9Q71.5 245.5 72.7 245.5ZM83.2 231.5L93.8 231.5L93.8 235.1L83.2 235.1L83.2 231.5ZM85.6 244.2L85.6 227.3L90.5 227.3L90.5 243.6Q90.5 244.3 90.7 244.6Q90.9 245.0 91.2 245.1Q91.6 245.3 92.1 245.3L92.1 245.3Q92.4 245.3 92.8 245.2Q93.1 245.2 93.3 245.1L93.3 245.1L94.1 248.7Q93.7 248.8 93.0 249.0Q92.4 249.2 91.4 249.2L91.4 249.2Q89.7 249.3 88.4 248.7Q87.1 248.2 86.3 247.1Q85.6 245.9 85.6 244.2L85.6 244.2Z "/><path fill="black" d="M106.9 249.7L106.9 231.5L111.8 231.5L111.8 249.8Q111.8 251.8 111.0 253.1Q110.2 254.3 108.7 254.9Q107.2 255.5 105.2 255.5L105.2 255.5Q104.9 255.5 104.7 255.5Q104.4 255.5 104.2 255.5L104.2 255.5L104.2 251.7Q104.4 251.7 104.5 251.7Q104.7 251.7 104.8 251.7L104.8 251.7Q106.0 251.7 106.5 251.2Q106.9 250.7 106.9 249.7L106.9 249.7ZM109.3 229.2L109.3 229.2Q108.3 229.2 107.5 228.5Q106.7 227.8 106.7 226.8L106.7 226.8Q106.7 225.8 107.5 225.1Q108.3 224.3 109.3 224.3L109.3 224.3Q110.4 224.3 111.2 225.1Q112.0 225.8 112.0 226.8L112.0 226.8Q112.0 227.8 111.2 228.5Q110.4 229.2 109.3 229.2ZM126.8 241.5L126.8 241.5L126.8 231.5L131.7 231.5L131.7 249.0L127.0 249.0L127.0 245.8L126.8 245.8Q126.3 247.3 124.9 248.2Q123.5 249.2 121.5 249.2L121.5 249.2Q119.8 249.2 118.5 248.4Q117.1 247.6 116.4 246.1Q115.6 244.7 115.6 242.6L115.6 242.6L115.6 231.5L120.5 231.5L120.5 241.7Q120.5 243.3 121.3 244.2Q122.1 245.1 123.5 245.1L123.5 245.1Q124.4 245.1 125.1 244.7Q125.9 244.3 126.4 243.5Q126.8 242.7 126.8 241.5ZM150.1 236.5L150.1 236.5L145.6 236.7Q145.5 236.2 145.1 235.7Q144.8 235.3 144.2 235.0Q143.5 234.7 142.7 234.7L142.7 234.7Q141.6 234.7 140.8 235.2Q140.0 235.6 140.0 236.4L140.0 236.4Q140.0 237.1 140.5 237.5Q141.0 237.9 142.3 238.2L142.3 238.2L145.4 238.8Q148.0 239.3 149.2 240.5Q150.5 241.7 150.5 243.5L150.5 243.5Q150.5 245.3 149.4 246.6Q148.4 247.8 146.7 248.6Q145.0 249.3 142.7 249.3L142.7 249.3Q139.2 249.3 137.2 247.8Q135.1 246.4 134.8 243.9L134.8 243.9L139.5 243.6Q139.7 244.7 140.6 245.3Q141.4 245.8 142.7 245.8L142.7 245.8Q144.0 245.8 144.7 245.3Q145.5 244.8 145.5 244.0L145.5 244.0Q145.5 243.4 145.0 242.9Q144.4 242.5 143.3 242.3L143.3 242.3L140.3 241.7Q137.7 241.2 136.5 239.9Q135.2 238.7 135.2 236.7L135.2 236.7Q135.2 235.0 136.1 233.8Q137.1 232.6 138.7 231.9Q140.4 231.3 142.6 231.3L142.6 231.3Q145.9 231.3 147.8 232.7Q149.7 234.1 150.1 236.5ZM152.3 231.5L162.8 231.5L162.8 235.1L152.3 235.1L152.3 231.5ZM154.7 244.2L154.7 227.3L159.5 227.3L159.5 243.6Q159.5 244.3 159.7 244.6Q159.9 245.0 160.3 245.1Q160.7 245.3 161.1 245.3L161.1 245.3Q161.5 245.3 161.8 245.2Q162.2 245.2 162.4 245.1L162.4 245.1L163.1 248.7Q162.7 248.8 162.1 249.0Q161.4 249.2 160.5 249.2L160.5 249.2Q158.7 249.3 157.4 248.7Q156.1 248.2 155.4 247.1Q154.7 245.9 154.7 244.2L154.7 244.2Z M178.3 249.3L178.3 249.3Q176.7 249.3 175.4 248.7Q174.1 248.1 173.3 247.0Q172.5 245.8 172.5 244.1L172.5 244.1Q172.5 242.6 173.1 241.6Q173.6 240.6 174.5 240.0Q175.5 239.4 176.6 239.1Q177.8 238.8 179.1 238.7L179.1 238.7Q180.6 238.5 181.6 238.4Q182.5 238.3 182.9 238.0Q183.3 237.7 183.3 237.1L183.3 237.1L183.3 237.1Q183.3 236.0 182.7 235.4Q182.0 234.8 180.7 234.8L180.7 234.8Q179.4 234.8 178.7 235.4Q177.9 236.0 177.6 236.8L177.6 236.8L173.2 236.5Q173.5 234.9 174.5 233.7Q175.5 232.5 177.1 231.9Q178.7 231.3 180.8 231.3L180.8 231.3Q182.2 231.3 183.6 231.6Q184.9 232.0 185.9 232.7Q187.0 233.4 187.6 234.5Q188.2 235.6 188.2 237.2L188.2 237.2L188.2 249.0L183.6 249.0L183.6 246.5L183.4 246.5Q183.0 247.3 182.3 248.0Q181.6 248.6 180.6 248.9Q179.6 249.3 178.3 249.3ZM179.7 245.9L179.7 245.9Q180.8 245.9 181.6 245.5Q182.4 245.1 182.9 244.4Q183.4 243.6 183.4 242.7L183.4 242.7L183.4 240.9Q183.1 241.0 182.7 241.1Q182.4 241.2 181.9 241.3Q181.4 241.4 180.9 241.5Q180.4 241.6 180.0 241.6L180.0 241.6Q179.1 241.8 178.5 242.0Q177.9 242.3 177.5 242.8Q177.2 243.2 177.2 243.9L177.2 243.9Q177.2 244.9 177.9 245.4Q178.6 245.9 179.7 245.9Z M216.3 248.7L200.3 241.6L200.3 237.6L216.3 230.6L216.3 235.2L205.3 239.6L205.5 239.4L205.5 239.9L205.3 239.7L216.3 244.1L216.3 248.7ZM232.3 231.5L237.4 231.5L231.3 249.0L225.8 249.0L219.7 231.5L224.8 231.5L228.5 244.0L228.6 244.0L232.3 231.5ZM244.7 249.0L239.9 249.0L239.9 231.5L244.7 231.5L244.7 249.0ZM242.3 229.2L242.3 229.2Q241.2 229.2 240.4 228.5Q239.7 227.8 239.7 226.8L239.7 226.8Q239.7 225.8 240.4 225.1Q241.2 224.3 242.3 224.3L242.3 224.3Q243.4 224.3 244.1 225.1Q244.9 225.8 244.9 226.8L244.9 226.8Q244.9 227.8 244.1 228.5Q243.4 229.2 242.3 229.2ZM255.0 249.2L255.0 249.2Q253 249.2 251.4 248.2Q249.8 247.2 248.8 245.2Q247.9 243.2 247.9 240.2L247.9 240.2Q247.9 237.2 248.9 235.3Q249.8 233.3 251.4 232.3Q253.1 231.3 255.0 231.3L255.0 231.3Q256.4 231.3 257.4 231.8Q258.4 232.3 259.0 233.0Q259.6 233.7 259.9 234.4L259.9 234.4L260.1 234.4L260.1 225.7L264.9 225.7L264.9 249.0L260.1 249.0L260.1 246.2L259.9 246.2Q259.6 246.9 259.0 247.6Q258.4 248.3 257.4 248.8Q256.4 249.2 255.0 249.2ZM256.5 245.4L256.5 245.4Q257.7 245.4 258.5 244.7Q259.3 244.1 259.8 242.9Q260.2 241.8 260.2 240.2L260.2 240.2Q260.2 238.7 259.8 237.5Q259.3 236.4 258.5 235.7Q257.7 235.1 256.5 235.1L256.5 235.1Q255.3 235.1 254.5 235.8Q253.7 236.4 253.3 237.6Q252.9 238.7 252.9 240.2L252.9 240.2Q252.9 241.7 253.3 242.9Q253.7 244.1 254.5 244.7Q255.3 245.4 256.5 245.4ZM276.8 249.3L276.8 249.3Q274.1 249.3 272.2 248.2Q270.3 247.1 269.2 245.1Q268.2 243.1 268.2 240.3L268.2 240.3Q268.2 237.6 269.2 235.6Q270.3 233.5 272.2 232.4Q274.1 231.3 276.6 231.3L276.6 231.3Q278.4 231.3 279.9 231.8Q281.4 232.4 282.5 233.5Q283.6 234.6 284.2 236.2Q284.9 237.9 284.9 240.1L284.9 240.1L284.9 241.5L270.1 241.5L270.1 238.5L280.3 238.5Q280.3 237.4 279.8 236.6Q279.4 235.8 278.6 235.3Q277.8 234.9 276.7 234.9L276.7 234.9Q275.6 234.9 274.8 235.4Q273.9 235.9 273.5 236.7Q273.0 237.6 273.0 238.6L273.0 238.6L273.0 241.5Q273.0 242.8 273.4 243.7Q273.9 244.7 274.8 245.2Q275.7 245.7 276.9 245.7L276.9 245.7Q277.7 245.7 278.4 245.5Q279.1 245.2 279.5 244.8Q280.0 244.3 280.3 243.7L280.3 243.7L284.8 244.0Q284.4 245.6 283.4 246.8Q282.3 248.0 280.7 248.6Q279 249.3 276.8 249.3ZM295.9 249.3L295.9 249.3Q293.3 249.3 291.3 248.2Q289.4 247.0 288.4 245.0Q287.3 243.0 287.3 240.3L287.3 240.3Q287.3 237.6 288.4 235.6Q289.4 233.5 291.3 232.4Q293.3 231.3 295.9 231.3L295.9 231.3Q298.5 231.3 300.5 232.4Q302.4 233.5 303.4 235.6Q304.5 237.6 304.5 240.3L304.5 240.3Q304.5 243.0 303.4 245.0Q302.4 247.0 300.5 248.2Q298.5 249.3 295.9 249.3ZM295.9 245.5L295.9 245.5Q297.1 245.5 297.9 244.9Q298.7 244.2 299.2 243.0Q299.6 241.8 299.6 240.3L299.6 240.3Q299.6 238.7 299.2 237.5Q298.7 236.3 297.9 235.7Q297.1 235.0 295.9 235.0L295.9 235.0Q294.7 235.0 293.9 235.7Q293.1 236.3 292.6 237.5Q292.2 238.7 292.2 240.3L292.2 240.3Q292.2 241.8 292.6 243.0Q293.1 244.2 293.9 244.9Q294.7 245.5 295.9 245.5Z M320.0 249.3L320.0 249.3Q318.4 249.3 317.1 248.7Q315.8 248.1 315.0 247.0Q314.3 245.8 314.3 244.1L314.3 244.1Q314.3 242.6 314.8 241.6Q315.3 240.6 316.2 240.0Q317.2 239.4 318.3 239.1Q319.5 238.8 320.8 238.7L320.8 238.7Q322.3 238.5 323.3 238.4Q324.2 238.3 324.6 238.0Q325.0 237.7 325.0 237.1L325.0 237.1L325.0 237.1Q325.0 236.0 324.4 235.4Q323.7 234.8 322.4 234.8L322.4 234.8Q321.1 234.8 320.4 235.4Q319.6 236.0 319.3 236.8L319.3 236.8L314.9 236.5Q315.2 234.9 316.2 233.7Q317.2 232.5 318.8 231.9Q320.4 231.3 322.5 231.3L322.5 231.3Q323.9 231.3 325.3 231.6Q326.6 232.0 327.6 232.7Q328.7 233.4 329.3 234.5Q329.9 235.6 329.9 237.2L329.9 237.2L329.9 249.0L325.3 249.0L325.3 246.5L325.1 246.5Q324.7 247.3 324.0 248.0Q323.3 248.6 322.3 248.9Q321.3 249.3 320.0 249.3ZM321.4 245.9L321.4 245.9Q322.5 245.9 323.3 245.5Q324.1 245.1 324.6 244.4Q325.1 243.6 325.1 242.7L325.1 242.7L325.1 240.9Q324.8 241.0 324.4 241.1Q324.1 241.2 323.6 241.3Q323.1 241.4 322.6 241.5Q322.1 241.6 321.7 241.6L321.7 241.6Q320.9 241.8 320.2 242.0Q319.6 242.3 319.2 242.8Q318.9 243.2 318.9 243.9L318.9 243.9Q318.9 244.9 319.6 245.4Q320.3 245.9 321.4 245.9ZM344.8 241.5L344.8 241.5L344.8 231.5L349.7 231.5L349.7 249.0L345.0 249.0L345.0 245.8L344.8 245.8Q344.3 247.3 342.9 248.2Q341.5 249.2 339.5 249.2L339.5 249.2Q337.8 249.2 336.5 248.4Q335.1 247.6 334.4 246.1Q333.6 244.7 333.6 242.6L333.6 242.6L333.6 231.5L338.5 231.5L338.5 241.7Q338.5 243.3 339.3 244.2Q340.1 245.1 341.5 245.1L341.5 245.1Q342.4 245.1 343.1 244.7Q343.9 244.3 344.4 243.5Q344.8 242.7 344.8 241.5ZM352.3 231.5L362.8 231.5L362.8 235.1L352.3 235.1L352.3 231.5ZM354.7 244.2L354.7 227.3L359.5 227.3L359.5 243.6Q359.5 244.3 359.7 244.6Q359.9 245.0 360.3 245.1Q360.7 245.3 361.2 245.3L361.2 245.3Q361.5 245.3 361.9 245.2Q362.2 245.2 362.4 245.1L362.4 245.1L363.1 248.7Q362.8 248.8 362.1 249.0Q361.5 249.2 360.5 249.2L360.5 249.2Q358.8 249.3 357.4 248.7Q356.1 248.2 355.4 247.1Q354.7 245.9 354.7 244.2L354.7 244.2ZM373.7 249.3L373.7 249.3Q371.0 249.3 369.1 248.2Q367.2 247.0 366.1 245.0Q365.1 243.0 365.1 240.3L365.1 240.3Q365.1 237.6 366.1 235.6Q367.2 233.5 369.1 232.4Q371.0 231.3 373.7 231.3L373.7 231.3Q376.3 231.3 378.2 232.4Q380.2 233.5 381.2 235.6Q382.3 237.6 382.3 240.3L382.3 240.3Q382.3 243.0 381.2 245.0Q380.2 247.0 378.2 248.2Q376.3 249.3 373.7 249.3ZM373.7 245.5L373.7 245.5Q374.9 245.5 375.7 244.9Q376.5 244.2 376.9 243.0Q377.3 241.8 377.3 240.3L377.3 240.3Q377.3 238.7 376.9 237.5Q376.5 236.3 375.7 235.7Q374.9 235.0 373.7 235.0L373.7 235.0Q372.5 235.0 371.7 235.7Q370.8 236.3 370.4 237.5Q370.0 238.7 370.0 240.3L370.0 240.3Q370.0 241.8 370.4 243.0Q370.8 244.2 371.7 244.9Q372.5 245.5 373.7 245.5ZM390.3 255.5L385.4 255.5L385.4 231.5L390.2 231.5L390.2 234.4L390.4 234.4Q390.7 233.7 391.3 233.0Q391.9 232.3 392.9 231.8Q393.9 231.3 395.4 231.3L395.4 231.3Q397.3 231.3 398.9 232.3Q400.5 233.3 401.5 235.3Q402.4 237.2 402.4 240.2L402.4 240.2Q402.4 243.2 401.5 245.2Q400.6 247.2 399.0 248.2Q397.4 249.2 395.4 249.2L395.4 249.2Q394.0 249.2 393.0 248.8Q392.0 248.3 391.4 247.6Q390.7 246.9 390.4 246.2L390.4 246.2L390.3 246.2L390.3 255.5ZM390.2 240.2L390.2 240.2Q390.2 241.8 390.6 242.9Q391.0 244.1 391.8 244.7Q392.7 245.4 393.8 245.4L393.8 245.4Q395.0 245.4 395.8 244.7Q396.6 244.1 397.1 242.9Q397.5 241.7 397.5 240.2L397.5 240.2Q397.5 238.7 397.1 237.6Q396.7 236.4 395.8 235.8Q395.0 235.1 393.8 235.1L393.8 235.1Q392.6 235.1 391.8 235.7Q391.0 236.4 390.6 237.5Q390.2 238.7 390.2 240.2ZM405.7 225.7L410.5 225.7L410.5 249.0L405.7 249.0L405.7 225.7ZM419.3 249.3L419.3 249.3Q417.7 249.3 416.4 248.7Q415.1 248.1 414.3 247.0Q413.5 245.8 413.5 244.1L413.5 244.1Q413.5 242.6 414.1 241.6Q414.6 240.6 415.5 240.0Q416.5 239.4 417.6 239.1Q418.8 238.8 420.1 238.7L420.1 238.7Q421.6 238.5 422.6 238.4Q423.5 238.3 423.9 238.0Q424.3 237.7 424.3 237.1L424.3 237.1L424.3 237.1Q424.3 236.0 423.7 235.4Q423.0 234.8 421.7 234.8L421.7 234.8Q420.4 234.8 419.7 235.4Q418.9 236.0 418.6 236.8L418.6 236.8L414.2 236.5Q414.5 234.9 415.5 233.7Q416.5 232.5 418.1 231.9Q419.7 231.3 421.8 231.3L421.8 231.3Q423.2 231.3 424.6 231.6Q425.9 232.0 426.9 232.7Q428.0 233.4 428.6 234.5Q429.2 235.6 429.2 237.2L429.2 237.2L429.2 249.0L424.6 249.0L424.6 246.5L424.4 246.5Q424.0 247.3 423.3 248.0Q422.6 248.6 421.6 248.9Q420.6 249.3 419.3 249.3ZM420.7 245.9L420.7 245.9Q421.8 245.9 422.6 245.5Q423.4 245.1 423.9 244.4Q424.4 243.6 424.4 242.7L424.4 242.7L424.4 240.9Q424.1 241.0 423.7 241.1Q423.4 241.2 422.9 241.3Q422.4 241.4 421.9 241.5Q421.4 241.6 421.0 241.6L421.0 241.6Q420.1 241.8 419.5 242.0Q418.9 242.3 418.5 242.8Q418.2 243.2 418.2 243.9L418.2 243.9Q418.2 244.9 418.9 245.4Q419.6 245.9 420.7 245.9ZM435.3 255.5L435.3 255.5Q434.4 255.5 433.6 255.4Q432.8 255.2 432.2 255.0L432.2 255.0L433.3 251.4Q434.2 251.6 434.9 251.7Q435.6 251.7 436.1 251.3Q436.6 251.0 436.9 250.2L436.9 250.2L437.2 249.5L430.9 231.5L436.0 231.5L439.6 244.3L439.8 244.3L443.4 231.5L448.6 231.5L441.8 250.8Q441.3 252.2 440.5 253.3Q439.6 254.3 438.4 254.9Q437.1 255.5 435.3 255.5Z M464.1 249.0L459.3 249.0L459.3 231.5L463.9 231.5L463.9 234.6L464.1 234.6Q464.6 233.0 465.9 232.2Q467.2 231.3 469.0 231.3L469.0 231.3Q470.8 231.3 472.0 232.2Q473.3 233.1 473.7 234.6L473.7 234.6L473.9 234.6Q474.4 233.1 475.8 232.2Q477.2 231.3 479.1 231.3L479.1 231.3Q481.6 231.3 483.1 232.8Q484.6 234.4 484.6 237.2L484.6 237.2L484.6 249.0L479.8 249.0L479.8 238.2Q479.8 236.7 479.0 236.0Q478.3 235.3 477.1 235.3L477.1 235.3Q475.8 235.3 475.1 236.1Q474.3 236.9 474.3 238.3L474.3 238.3L474.3 249.0L469.6 249.0L469.6 238.1Q469.6 236.8 468.9 236.0Q468.2 235.3 467.0 235.3L467.0 235.3Q466.2 235.3 465.5 235.7Q464.9 236.1 464.5 236.8Q464.1 237.5 464.1 238.5L464.1 238.5L464.1 249.0ZM499.7 241.5L499.7 241.5L499.7 231.5L504.5 231.5L504.5 249.0L499.9 249.0L499.9 245.8L499.7 245.8Q499.1 247.3 497.7 248.2Q496.3 249.2 494.4 249.2L494.4 249.2Q492.6 249.2 491.3 248.4Q490.0 247.6 489.2 246.1Q488.5 244.7 488.5 242.6L488.5 242.6L488.5 231.5L493.3 231.5L493.3 241.7Q493.3 243.3 494.1 244.2Q495.0 245.1 496.3 245.1L496.3 245.1Q497.2 245.1 498.0 244.7Q498.7 244.3 499.2 243.5Q499.7 242.7 499.7 241.5ZM507.1 231.5L517.6 231.5L517.6 235.1L507.1 235.1L507.1 231.5ZM509.5 244.2L509.5 227.3L514.4 227.3L514.4 243.6Q514.4 244.3 514.6 244.6Q514.8 245.0 515.1 245.1Q515.5 245.3 516 245.3L516 245.3Q516.3 245.3 516.7 245.2Q517.0 245.2 517.2 245.1L517.2 245.1L518.0 248.7Q517.6 248.8 516.9 249.0Q516.3 249.2 515.3 249.2L515.3 249.2Q513.6 249.3 512.3 248.7Q511.0 248.2 510.2 247.1Q509.5 245.9 509.5 244.2L509.5 244.2ZM528.6 249.3L528.6 249.3Q525.9 249.3 523.9 248.2Q522 247.1 521.0 245.1Q519.9 243.1 519.9 240.3L519.9 240.3Q519.9 237.6 521.0 235.6Q522 233.5 523.9 232.4Q525.8 231.3 528.4 231.3L528.4 231.3Q530.1 231.3 531.6 231.8Q533.1 232.4 534.2 233.5Q535.3 234.6 536.0 236.2Q536.6 237.9 536.6 240.1L536.6 240.1L536.6 241.5L521.8 241.5L521.8 238.5L532.0 238.5Q532.0 237.4 531.6 236.6Q531.1 235.8 530.3 235.3Q529.5 234.9 528.5 234.9L528.5 234.9Q527.4 234.9 526.5 235.4Q525.7 235.9 525.2 236.7Q524.7 237.6 524.7 238.6L524.7 238.6L524.7 241.5Q524.7 242.8 525.2 243.7Q525.7 244.7 526.5 245.2Q527.4 245.7 528.6 245.7L528.6 245.7Q529.5 245.7 530.1 245.5Q530.8 245.2 531.3 244.8Q531.8 244.3 532 243.7L532 243.7L536.5 244.0Q536.1 245.6 535.1 246.8Q534.0 248.0 532.4 248.6Q530.7 249.3 528.6 249.3ZM546.2 249.2L546.2 249.2Q544.2 249.2 542.6 248.2Q541.0 247.2 540.0 245.2Q539.1 243.2 539.1 240.2L539.1 240.2Q539.1 237.2 540.1 235.3Q541.0 233.3 542.6 232.3Q544.2 231.3 546.2 231.3L546.2 231.3Q547.6 231.3 548.6 231.8Q549.6 232.3 550.2 233.0Q550.8 233.7 551.1 234.4L551.1 234.4L551.3 234.4L551.3 225.7L556.1 225.7L556.1 249.0L551.3 249.0L551.3 246.2L551.1 246.2Q550.8 246.9 550.2 247.6Q549.5 248.3 548.6 248.8Q547.6 249.2 546.2 249.2ZM547.7 245.4L547.7 245.4Q548.9 245.4 549.7 244.7Q550.5 244.1 550.9 242.9Q551.4 241.8 551.4 240.2L551.4 240.2Q551.4 238.7 550.9 237.5Q550.5 236.4 549.7 235.7Q548.9 235.1 547.7 235.1L547.7 235.1Q546.5 235.1 545.7 235.8Q544.9 236.4 544.5 237.6Q544.0 238.7 544.0 240.2L544.0 240.2Q544.0 241.7 544.5 242.9Q544.9 244.1 545.7 244.7Q546.5 245.4 547.7 245.4Z M582.2 236.5L582.2 236.5L577.8 236.7Q577.6 236.2 577.3 235.7Q576.9 235.3 576.3 235.0Q575.7 234.7 574.8 234.7L574.8 234.7Q573.7 234.7 572.9 235.2Q572.2 235.6 572.2 236.4L572.2 236.4Q572.2 237.1 572.7 237.5Q573.2 237.9 574.4 238.2L574.4 238.2L577.5 238.8Q580.1 239.3 581.3 240.5Q582.6 241.7 582.6 243.5L582.6 243.5Q582.6 245.3 581.6 246.6Q580.6 247.8 578.8 248.6Q577.1 249.3 574.8 249.3L574.8 249.3Q571.4 249.3 569.3 247.8Q567.3 246.4 566.9 243.9L566.9 243.9L571.7 243.6Q571.9 244.7 572.7 245.3Q573.5 245.8 574.8 245.8L574.8 245.8Q576.1 245.8 576.9 245.3Q577.7 244.8 577.7 244.0L577.7 244.0Q577.7 243.4 577.1 242.9Q576.6 242.5 575.4 242.3L575.4 242.3L572.4 241.7Q569.9 241.2 568.6 239.9Q567.4 238.7 567.4 236.7L567.4 236.7Q567.4 235.0 568.3 233.8Q569.2 232.6 570.9 231.9Q572.5 231.3 574.8 231.3L574.8 231.3Q578.1 231.3 580.0 232.7Q581.9 234.1 582.2 236.5ZM590.5 249.0L585.6 249.0L585.6 231.5L590.3 231.5L590.3 234.5L590.5 234.5Q591 232.9 592.1 232.1Q593.3 231.2 594.7 231.2L594.7 231.2Q595.1 231.2 595.5 231.3Q595.9 231.3 596.2 231.4L596.2 231.4L596.2 235.7Q595.9 235.6 595.3 235.5Q594.7 235.5 594.2 235.5L594.2 235.5Q593.1 235.5 592.3 235.9Q591.5 236.4 591.0 237.2Q590.5 238.0 590.5 239.1L590.5 239.1L590.5 249.0ZM605.8 249.3L605.8 249.3Q603.1 249.3 601.2 248.2Q599.3 247.0 598.2 245.0Q597.2 242.9 597.2 240.3L597.2 240.3Q597.2 237.6 598.2 235.6Q599.3 233.6 601.2 232.4Q603.1 231.3 605.8 231.3L605.8 231.3Q608.1 231.3 609.8 232.1Q611.5 232.9 612.5 234.4Q613.5 235.9 613.6 238.0L613.6 238.0L609.0 238.0Q608.8 236.6 608.0 235.8Q607.2 235.0 605.9 235.0L605.9 235.0Q604.7 235.0 603.9 235.7Q603.1 236.3 602.6 237.4Q602.1 238.6 602.1 240.2L602.1 240.2Q602.1 241.9 602.6 243.1Q603.0 244.2 603.9 244.8Q604.7 245.5 605.9 245.5L605.9 245.5Q606.7 245.5 607.3 245.1Q608.0 244.8 608.4 244.1Q608.9 243.5 609.0 242.6L609.0 242.6L613.6 242.6Q613.5 244.6 612.5 246.1Q611.5 247.6 609.8 248.4Q608.1 249.3 605.8 249.3Z M629.9 249.3L629.9 249.3Q628.3 249.3 626.9 248.7Q625.6 248.1 624.9 247.0Q624.1 245.8 624.1 244.1L624.1 244.1Q624.1 242.6 624.7 241.6Q625.2 240.6 626.1 240.0Q627.0 239.4 628.2 239.1Q629.4 238.8 630.7 238.7L630.7 238.7Q632.2 238.5 633.1 238.4Q634.1 238.3 634.5 238.0Q634.9 237.7 634.9 237.1L634.9 237.1L634.9 237.1Q634.9 236.0 634.2 235.4Q633.6 234.8 632.3 234.8L632.3 234.8Q631.0 234.8 630.2 235.4Q629.5 236.0 629.2 236.8L629.2 236.8L624.7 236.5Q625.1 234.9 626.1 233.7Q627.1 232.5 628.7 231.9Q630.3 231.3 632.3 231.3L632.3 231.3Q633.8 231.3 635.1 231.6Q636.5 232.0 637.5 232.7Q638.5 233.4 639.1 234.5Q639.8 235.6 639.8 237.2L639.8 237.2L639.8 249.0L635.2 249.0L635.2 246.5L635.0 246.5Q634.6 247.3 633.9 248.0Q633.2 248.6 632.2 248.9Q631.2 249.3 629.9 249.3ZM631.3 245.9L631.3 245.9Q632.4 245.9 633.2 245.5Q634.0 245.1 634.5 244.4Q634.9 243.6 634.9 242.7L634.9 242.7L634.9 240.9Q634.7 241.0 634.3 241.1Q633.9 241.2 633.4 241.3Q633.0 241.4 632.5 241.5Q632.0 241.6 631.6 241.6L631.6 241.6Q630.7 241.8 630.1 242.0Q629.5 242.3 629.1 242.8Q628.8 243.2 628.8 243.9L628.8 243.9Q628.8 244.9 629.5 245.4Q630.2 245.9 631.3 245.9ZM648.4 249.0L643.5 249.0L643.5 231.5L648.2 231.5L648.2 234.5L648.4 234.5Q648.9 232.9 650.0 232.1Q651.1 231.2 652.6 231.2L652.6 231.2Q652.9 231.2 653.4 231.3Q653.8 231.3 654.1 231.4L654.1 231.4L654.1 235.7Q653.8 235.6 653.2 235.5Q652.6 235.5 652.1 235.5L652.1 235.5Q651.0 235.5 650.2 235.9Q649.3 236.4 648.8 237.2Q648.4 238.0 648.4 239.1L648.4 239.1L648.4 249.0ZM661.4 249.0L656.6 249.0L656.6 231.5L661.4 231.5L661.4 249.0ZM659.0 229.2L659.0 229.2Q657.9 229.2 657.2 228.5Q656.4 227.8 656.4 226.8L656.4 226.8Q656.4 225.8 657.2 225.1Q657.9 224.3 659.0 224.3L659.0 224.3Q660.1 224.3 660.9 225.1Q661.6 225.8 661.6 226.8L661.6 226.8Q661.6 227.8 660.9 228.5Q660.1 229.2 659.0 229.2ZM670.3 249.3L670.3 249.3Q668.6 249.3 667.3 248.7Q666.0 248.1 665.2 247.0Q664.5 245.8 664.5 244.1L664.5 244.1Q664.5 242.6 665.0 241.6Q665.5 240.6 666.5 240.0Q667.4 239.4 668.6 239.1Q669.7 238.8 671.0 238.7L671.0 238.7Q672.6 238.5 673.5 238.4Q674.4 238.3 674.8 238.0Q675.3 237.7 675.3 237.1L675.3 237.1L675.3 237.1Q675.3 236.0 674.6 235.4Q673.9 234.8 672.7 234.8L672.7 234.8Q671.4 234.8 670.6 235.4Q669.8 236.0 669.6 236.8L669.6 236.8L665.1 236.5Q665.4 234.9 666.4 233.7Q667.4 232.5 669.0 231.9Q670.6 231.3 672.7 231.3L672.7 231.3Q674.1 231.3 675.5 231.6Q676.8 232.0 677.9 232.7Q678.9 233.4 679.5 234.5Q680.1 235.6 680.1 237.2L680.1 237.2L680.1 249.0L675.5 249.0L675.5 246.5L675.4 246.5Q675.0 247.3 674.3 248.0Q673.5 248.6 672.6 248.9Q671.6 249.3 670.3 249.3ZM671.7 245.9L671.7 245.9Q672.7 245.9 673.5 245.5Q674.4 245.1 674.8 244.4Q675.3 243.6 675.3 242.7L675.3 242.7L675.3 240.9Q675.1 241.0 674.7 241.1Q674.3 241.2 673.8 241.3Q673.3 241.4 672.8 241.5Q672.3 241.6 671.9 241.6L671.9 241.6Q671.1 241.8 670.4 242.0Q669.8 242.3 669.5 242.8Q669.1 243.2 669.1 243.9L669.1 243.9Q669.1 244.9 669.8 245.4Q670.5 245.9 671.7 245.9ZM684.1 237.5L694.7 237.5L694.7 241.3L684.1 241.3L684.1 237.5ZM698.9 225.7L703.7 225.7L703.7 249.0L698.9 249.0L698.9 225.7ZM712.5 249.3L712.5 249.3Q710.9 249.3 709.6 248.7Q708.3 248.1 707.5 247.0Q706.8 245.8 706.8 244.1L706.8 244.1Q706.8 242.6 707.3 241.6Q707.8 240.6 708.7 240.0Q709.7 239.4 710.8 239.1Q712.0 238.8 713.3 238.7L713.3 238.7Q714.8 238.5 715.8 238.4Q716.7 238.3 717.1 238.0Q717.5 237.7 717.5 237.1L717.5 237.1L717.5 237.1Q717.5 236.0 716.9 235.4Q716.2 234.8 714.9 234.8L714.9 234.8Q713.6 234.8 712.9 235.4Q712.1 236.0 711.8 236.8L711.8 236.8L707.4 236.5Q707.7 234.9 708.7 233.7Q709.7 232.5 711.3 231.9Q712.9 231.3 715.0 231.3L715.0 231.3Q716.4 231.3 717.8 231.6Q719.1 232.0 720.1 232.7Q721.2 233.4 721.8 234.5Q722.4 235.6 722.4 237.2L722.4 237.2L722.4 249.0L717.8 249.0L717.8 246.5L717.6 246.5Q717.2 247.3 716.5 248.0Q715.8 248.6 714.8 248.9Q713.8 249.3 712.5 249.3ZM713.9 245.9L713.9 245.9Q715.0 245.9 715.8 245.5Q716.6 245.1 717.1 244.4Q717.6 243.6 717.6 242.7L717.6 242.7L717.6 240.9Q717.3 241.0 716.9 241.1Q716.6 241.2 716.1 241.3Q715.6 241.4 715.1 241.5Q714.6 241.6 714.2 241.6L714.2 241.6Q713.4 241.8 712.7 242.0Q712.1 242.3 711.7 242.8Q711.4 243.2 711.4 243.9L711.4 243.9Q711.4 244.9 712.1 245.4Q712.8 245.9 713.9 245.9ZM731.0 249.0L726.2 249.0L726.2 225.7L731.1 225.7L731.1 234.4L731.2 234.4Q731.5 233.7 732.1 233.0Q732.8 232.3 733.7 231.8Q734.7 231.3 736.2 231.3L736.2 231.3Q738.1 231.3 739.7 232.3Q741.3 233.3 742.3 235.3Q743.3 237.2 743.3 240.2L743.3 240.2Q743.3 243.2 742.3 245.2Q741.4 247.2 739.8 248.2Q738.2 249.2 736.2 249.2L736.2 249.2Q734.8 249.2 733.8 248.8Q732.8 248.3 732.2 247.6Q731.5 246.9 731.2 246.2L731.2 246.2L731.0 246.2L731.0 249.0ZM731.0 240.2L731.0 240.2Q731.0 241.8 731.4 242.9Q731.8 244.1 732.6 244.7Q733.5 245.4 734.6 245.4L734.6 245.4Q735.8 245.4 736.6 244.7Q737.5 244.1 737.9 242.9Q738.3 241.7 738.3 240.2L738.3 240.2Q738.3 238.7 737.9 237.6Q737.5 236.4 736.6 235.8Q735.8 235.1 734.6 235.1L734.6 235.1Q733.5 235.1 732.6 235.7Q731.8 236.4 731.4 237.5Q731.0 238.7 731.0 240.2ZM754.4 249.3L754.4 249.3Q751.7 249.3 749.8 248.2Q747.9 247.1 746.8 245.1Q745.8 243.1 745.8 240.3L745.8 240.3Q745.8 237.6 746.8 235.6Q747.9 233.5 749.8 232.4Q751.7 231.3 754.2 231.3L754.2 231.3Q756.0 231.3 757.4 231.8Q758.9 232.4 760.1 233.5Q761.2 234.6 761.8 236.2Q762.4 237.9 762.4 240.1L762.4 240.1L762.4 241.5L747.7 241.5L747.7 238.5L757.9 238.5Q757.9 237.4 757.4 236.6Q757.0 235.8 756.2 235.3Q755.4 234.9 754.3 234.9L754.3 234.9Q753.2 234.9 752.4 235.4Q751.5 235.9 751.0 236.7Q750.6 237.6 750.5 238.6L750.5 238.6L750.5 241.5Q750.5 242.8 751.0 243.7Q751.5 244.7 752.4 245.2Q753.3 245.7 754.5 245.7L754.5 245.7Q755.3 245.7 756.0 245.5Q756.6 245.2 757.1 244.8Q757.6 244.3 757.9 243.7L757.9 243.7L762.3 244.0Q762.0 245.6 760.9 246.8Q759.9 248.0 758.2 248.6Q756.6 249.3 754.4 249.3ZM765.6 225.7L770.4 225.7L770.4 249.0L765.6 249.0L765.6 225.7ZM791.2 237.6L791.2 241.6L775.2 248.7L775.2 244.1L786.2 239.7L786.0 239.9L786.0 239.4L786.2 239.6L775.2 235.2L775.2 230.6L791.2 237.6Z "/></svg>